<svg xmlns="http://www.w3.org/2000/svg" viewBox="0 0 215.85 217.07"><defs><style>.cls-1{fill:#33afe5;}.cls-2{fill:#fff;}.cls-3{fill:#ce1327;}</style></defs><g id="Layer_2" data-name="Layer 2"><g id="Layer_1-2" data-name="Layer 1"><polygon class="cls-1" points="7.95 162.05 0 180.23 5.6 180.23 10.3 168.87 14.74 180.23 20.3 180.23 12.98 162.05 7.95 162.05"/><polygon class="cls-1" points="31.23 158.4 26.41 158.43 26.32 180.23 40.37 180.23 40.4 175.75 31.2 175.78 31.23 158.4"/><path class="cls-1" d="M46.8,175c0,.08,0,.26.05.55a5.32,5.32,0,0,0,.22,1,5.79,5.79,0,0,0,.55,1.21,4.18,4.18,0,0,0,1,1.17,5.32,5.32,0,0,0,1.62.89,6.83,6.83,0,0,0,2.37.36h7.77v-4.3c-.62,0-1.25,0-1.91,0H54.34a2.31,2.31,0,0,1-1.67-.52,2.74,2.74,0,0,1-.75-1.17,4.44,4.44,0,0,1-.15-1.69H59v-3.91H51.77v-2.76h8.64l0-3.89H46.8Z"/><polygon class="cls-1" points="79.05 161.9 75.8 166.62 72.59 161.9 65.8 161.93 72.77 171.07 65.8 180.23 72.59 180.23 75.8 175.81 79.05 180.23 85.81 180.23 79.41 171.07 85.81 161.93 79.05 161.9"/><polygon class="cls-1" points="98.58 162.05 90.63 180.23 96.23 180.23 100.93 168.87 105.37 180.23 110.94 180.23 103.61 162.05 98.58 162.05"/><polygon class="cls-1" points="128.71 170.95 121.89 161.93 117.25 161.93 117.25 180.2 122.19 180.2 122.19 170.32 129.3 180.2 133.68 180.2 133.68 161.93 128.71 161.93 128.71 170.95"/><path class="cls-1" d="M151.43,157.63l0,4.33h-5a7.25,7.25,0,0,0-1.84.22,5.28,5.28,0,0,0-1.4.6,5.06,5.06,0,0,0-1,.83,4.69,4.69,0,0,0-.7,1,6.71,6.71,0,0,0-.8,2.61v8.63a4.06,4.06,0,0,0,.24,1.46,3.43,3.43,0,0,0,.64,1.08,4.17,4.17,0,0,0,.9.78,5.8,5.8,0,0,0,1,.54,8.19,8.19,0,0,0,2.8.56h10.21l-.06-22.6Zm-.06,18.21H148a2.79,2.79,0,0,1-1.53-.35,2,2,0,0,1-.75-.88,2.89,2.89,0,0,1-.22-1.08V169.7c0-.22,0-.51,0-.89a3.37,3.37,0,0,1,.22-1.11,2.19,2.19,0,0,1,.74-1,2.49,2.49,0,0,1,1.55-.42h3.31Z"/><path class="cls-1" d="M166.86,162.32a5.45,5.45,0,0,0-1.62.89,4.18,4.18,0,0,0-1,1.17,6.36,6.36,0,0,0-.55,1.21,5.49,5.49,0,0,0-.22,1c0,.29,0,.47,0,.55v13.08h5V169.64c0-.06,0-.26,0-.62a3.11,3.11,0,0,1,.16-1.14,2.5,2.5,0,0,1,.73-1.1,2.45,2.45,0,0,1,1.7-.49H177V162h-7.77A6.87,6.87,0,0,0,166.86,162.32Z"/><rect class="cls-1" x="183.55" y="161.96" width="4.94" height="18.27"/><polygon class="cls-1" points="207.79 162.05 202.76 162.05 194.81 180.23 200.4 180.23 205.11 168.87 209.54 180.23 215.11 180.23 207.79 162.05"/><path class="cls-2" d="M7.9,211.2a9.34,9.34,0,0,1-3.2-.48,7.31,7.31,0,0,1-2.2-1.21,5.84,5.84,0,0,1-1.39-1.58,8.43,8.43,0,0,1-.75-1.65,7.39,7.39,0,0,1-.3-1.36q-.06-.58-.06-.75V186.46H18.47l0,5.26H6.73v3.74h9.76v5.3H6.73a5.73,5.73,0,0,0,.21,2.29,3.67,3.67,0,0,0,1,1.58,3.16,3.16,0,0,0,2.26.71h5.65c.88,0,1.74,0,2.58,0v5.82Z"/><path class="cls-2" d="M40.77,195.34v21H35v-5.06H29a9.5,9.5,0,0,1-3.22-.48,7.31,7.31,0,0,1-2.22-1.21A6,6,0,0,1,22.2,208a8.78,8.78,0,0,1-.77-1.67,7.08,7.08,0,0,1-.32-1.41c0-.4-.06-.65-.06-.76l0-10.6c0-.11,0-.36.06-.77a7,7,0,0,1,.32-1.4,9.28,9.28,0,0,1,.75-1.67,5.58,5.58,0,0,1,1.37-1.58,7.31,7.31,0,0,1,2.22-1.21,9.5,9.5,0,0,1,3.22-.48H40.57v5.86H31.25a3.69,3.69,0,0,0-2.09.5,2.63,2.63,0,0,0-1,1.23,4.58,4.58,0,0,0-.31,1.53c0,.53,0,1,0,1.4v.89c0,.37,0,.75,0,1.14s0,.74,0,1.06v.65c0,.29,0,.7,0,1.22a4.49,4.49,0,0,0,.33,1.55,3,3,0,0,0,1,1.32,3.38,3.38,0,0,0,2.13.57H35v-4.66H33.79l.12-5.34Z"/><path class="cls-2" d="M50.73,201.48a3.5,3.5,0,0,0,.72,2.45,3.77,3.77,0,0,0,2.74.76h3.63l0-18.19h7L64.64,217l-6.9,0,0-5.83H51.9a9.49,9.49,0,0,1-2.51-.3,7.42,7.42,0,0,1-1.89-.8A6.6,6.6,0,0,1,46.11,209a7.4,7.4,0,0,1-1-1.28,9.12,9.12,0,0,1-1.09-3.54V186.5h6.7v9.28c0,.85,0,1.66,0,2.41s0,1.42,0,2Z"/><path class="cls-2" d="M82.62,186.46a11.09,11.09,0,0,1,3.83.76,7.87,7.87,0,0,1,1.39.7A5.32,5.32,0,0,1,89.05,189a5.07,5.07,0,0,1,.87,1.48,5.65,5.65,0,0,1,.32,2v11.69a9,9,0,0,1-1.09,3.54,8.31,8.31,0,0,1-.92,1.28,6.13,6.13,0,0,1-1.39,1.15,8,8,0,0,1-1.92.8,9.47,9.47,0,0,1-2.5.3H75.69l0,5.87L68.91,217l-.12-30.53Zm1,10.48v-1.36a3.8,3.8,0,0,0-.3-1.51,2.81,2.81,0,0,0-1-1.19,3.7,3.7,0,0,0-2.1-.48H75.73v12.9H80.2a3.33,3.33,0,0,0,2.12-.57,3,3,0,0,0,1-1.3,5.07,5.07,0,0,0,.3-1.53c0-.52,0-.91,0-1.18Z"/><path class="cls-2" d="M114.76,193.39h-7.58v17.77h-6.74V193.39H92.7v-7.07h22.06Z"/><path class="cls-3" d="M209.86,185.59l0,13.08h-5.85a3.49,3.49,0,0,1-1.23-.19,1.8,1.8,0,0,1-1-.88,4.14,4.14,0,0,1-.42-1.42,10.55,10.55,0,0,1-.11-1.43l0-9.16h-6v11.9c0,.21.06.57.2,1.43a6.88,6.88,0,0,0,.95,2.39,7.3,7.3,0,0,0,2.39,2.28,8.46,8.46,0,0,0,4.52,1h6.47v7.07h6V185.59Z"/><path class="cls-3" d="M192.09,190.54a8.58,8.58,0,0,0-.76-1.68,6.09,6.09,0,0,0-1.38-1.57,7.86,7.86,0,0,0-2.23-1.21,9.67,9.67,0,0,0-3.31-.49h-11v5h8.41a4.78,4.78,0,0,1,3,.82,4.33,4.33,0,0,1,1.35,1.76,5.05,5.05,0,0,1,.22,2.54l-.09.64h-5a8.44,8.44,0,0,0-4.51,1,7.11,7.11,0,0,0-2.39,2.28,6.5,6.5,0,0,0-.94,2.38c-.12.84-.16,1.23-.17,1.47v8.15h19v-5h-.73l-3.86,0h-8.45v-.75c0-.92,0-1.66,0-2.23a3.14,3.14,0,0,1,.56-1.75,2.54,2.54,0,0,1,1.6-.9,12.59,12.59,0,0,1,2.43-.18h8.5v-8.17c0-.11,0-.36-.06-.74A7.87,7.87,0,0,0,192.09,190.54Z"/><path class="cls-3" d="M147.32,190.54a8.32,8.32,0,0,0-.76-1.68,5.93,5.93,0,0,0-1.38-1.57,7.86,7.86,0,0,0-2.23-1.21,9.63,9.63,0,0,0-3.31-.49h-11v5h8.42a4.75,4.75,0,0,1,3,.82,4.24,4.24,0,0,1,1.35,1.76,5.05,5.05,0,0,1,.23,2.54l-.1.64h-5a8.46,8.46,0,0,0-4.52,1,7.17,7.17,0,0,0-2.38,2.28,6.33,6.33,0,0,0-.94,2.38,13.14,13.14,0,0,0-.17,1.47v8.15h19v-5h-.73l-3.87,0h-8.45v-.75c0-.92,0-1.66.05-2.23a3.14,3.14,0,0,1,.56-1.75,2.54,2.54,0,0,1,1.6-.9,12.48,12.48,0,0,1,2.42-.18h8.51v-8.17c0-.11,0-.36-.07-.74A7.05,7.05,0,0,0,147.32,190.54Z"/><path class="cls-3" d="M170.64,190.54h0a8.38,8.38,0,0,0-.76-1.68,6,6,0,0,0-1.37-1.57,7.39,7.39,0,0,0-2.2-1.22,9.9,9.9,0,0,0-3.31-.48h-4.14a9.63,9.63,0,0,0-3.31.49,7.41,7.41,0,0,0-2.2,1.21,6.19,6.19,0,0,0-1.36,1.57,8.52,8.52,0,0,0-.77,1.68,7.74,7.74,0,0,0-.3,1.38c0,.38-.07.63-.07.76v12.14c0,.12,0,.36.07.75a8.33,8.33,0,0,0,.3,1.38,8.45,8.45,0,0,0,.77,1.67,6.06,6.06,0,0,0,1.36,1.58,7.18,7.18,0,0,0,2.2,1.2,9.65,9.65,0,0,0,3.31.5H163a9.88,9.88,0,0,0,3.31-.49,7.39,7.39,0,0,0,2.21-1.22,6.15,6.15,0,0,0,1.36-1.56,8.45,8.45,0,0,0,.76-1.69,7.05,7.05,0,0,0,.31-1.38q.06-.56.06-.75V192.65c0-.11,0-.36-.06-.73A7.05,7.05,0,0,0,170.64,190.54Zm-14.56,8.36c0-.44,0-.87,0-1.3v-1c0-.46,0-1,0-1.57a5.22,5.22,0,0,1,.42-1.93,3.8,3.8,0,0,1,1.39-1.65,4.8,4.8,0,0,1,2.75-.67h.45a5,5,0,0,1,2.88.67,3.73,3.73,0,0,1,1.39,1.65,4.85,4.85,0,0,1,.42,1.93c0,.59,0,1.11,0,1.57v1c0,.43,0,.86,0,1.3s0,.81,0,1.17v.76c0,.3,0,.75,0,1.33a5.78,5.78,0,0,1-.41,2,4.35,4.35,0,0,1-1.36,1.76,4.47,4.47,0,0,1-2.84.8h-.4a4.53,4.53,0,0,1-2.81-.79,4.26,4.26,0,0,1-1.38-1.77,5.56,5.56,0,0,1-.42-2c0-.59,0-1,0-1.34v-.76C156.1,199.71,156.09,199.33,156.08,198.9Z"/><path class="cls-2" d="M6.6,153.82a5.94,5.94,0,0,1-2.33-.45,5.76,5.76,0,0,1-1.88-1.26,5.84,5.84,0,0,1-1.26-1.9,6.28,6.28,0,0,1-.44-2.34,6.18,6.18,0,0,1,.44-2.35,5.92,5.92,0,0,1,1.25-1.9,5.65,5.65,0,0,1,1.88-1.26,6,6,0,0,1,2.34-.45,6,6,0,0,1,2.34.45,5.86,5.86,0,0,1,1.88,1.26,5.76,5.76,0,0,1,1.25,1.9,6,6,0,0,1,.44,2.35,6.09,6.09,0,0,1-.44,2.34,5.66,5.66,0,0,1-1.25,1.9,5.86,5.86,0,0,1-1.88,1.26A6,6,0,0,1,6.6,153.82Zm0-2.41a3,3,0,0,0,1.73-.49,3.23,3.23,0,0,0,1.11-1.31,4.34,4.34,0,0,0,0-3.55,3.17,3.17,0,0,0-1.11-1.29,3.05,3.05,0,0,0-1.73-.48,3.08,3.08,0,0,0-1.73.48,3.17,3.17,0,0,0-1.11,1.29,4.23,4.23,0,0,0,0,3.55,3.23,3.23,0,0,0,1.11,1.31A3,3,0,0,0,6.6,151.41Z"/><path class="cls-2" d="M14.29,153.53V142.22h2.57v9h5.43v2.27Z"/><path class="cls-2" d="M24.34,153.53V148.8l-4-6.58h2.91l2.47,4.27,2.41-4.27h2.79l-4,6.56v4.75Z"/><path class="cls-2" d="M31.7,153.53l.52-11.31h2.44l3,5.31,2.9-5.31H43l.53,11.31H40.93l-.32-7.39L38.26,152H36.93l-2.49-5.79-.29,7.34Z"/><path class="cls-2" d="M45.53,153.53V142.22h4.14a4.52,4.52,0,0,1,2.29.51,3.27,3.27,0,0,1,1.29,1.35,4,4,0,0,1,.41,1.78,3.62,3.62,0,0,1-.55,2,3.47,3.47,0,0,1-1.42,1.24,4.36,4.36,0,0,1-1.9.42H48v4Zm2.5-6.05h1.5a1.52,1.52,0,0,0,1.13-.44,1.57,1.57,0,0,0,.42-1.12,1.65,1.65,0,0,0-.42-1.17,1.51,1.51,0,0,0-1.14-.45H48Z"/><path class="cls-2" d="M55.38,153.53V142.22H58v11.31Z"/><path class="cls-2" d="M59.17,153.53l4.25-11.31h2.84l4.16,11.31H67.61l-.87-2.59h-4l-.87,2.59ZM63.33,149h2.8l-1.38-4.27Z"/><path class="cls-2" d="M71.64,153.53V142.22h4.3a7.68,7.68,0,0,1,3.12.6,4.67,4.67,0,0,1,2.16,1.86,6.13,6.13,0,0,1,.78,3.25,5.69,5.69,0,0,1-.79,3.12,5,5,0,0,1-2.16,1.87,7.6,7.6,0,0,1-3.13.61Zm2.58-2.27h1.56a3.6,3.6,0,0,0,2.63-.9,3.26,3.26,0,0,0,.92-2.44,3.65,3.65,0,0,0-.85-2.51,3.51,3.51,0,0,0-2.7-.94H74.22Z"/><path class="cls-2" d="M86.86,153.53V142.22h2.57v11.31Z"/><path class="cls-2" d="M91.64,153.53V142.22H94.1L99,149.56v-7.34h2.54v11.31H99.23l-5-7.48v7.48Z"/><path class="cls-2" d="M106.86,153.53V142.22h2.57v11.31Z"/><path class="cls-2" d="M111.64,153.53V142.22h2.46l4.92,7.34v-7.34h2.54v11.31h-2.33l-5-7.48v7.48Z"/><path class="cls-2" d="M123.77,153.53V142.22h7.64v2.25h-5.06V147h3.85v2.18h-3.85v4.31Z"/><path class="cls-2" d="M137.83,153.82a6,6,0,0,1-2.34-.45,5.73,5.73,0,0,1-3.13-3.16,6.09,6.09,0,0,1-.44-2.34,6,6,0,0,1,.44-2.35,6.06,6.06,0,0,1,1.24-1.9,5.8,5.8,0,0,1,1.89-1.26,6,6,0,0,1,2.34-.45,5.94,5.94,0,0,1,2.33.45,5.65,5.65,0,0,1,1.88,1.26,6,6,0,0,1,1.26,1.9,6.18,6.18,0,0,1,.44,2.35,6.28,6.28,0,0,1-.44,2.34,5.84,5.84,0,0,1-1.26,1.9,5.65,5.65,0,0,1-1.88,1.26A5.94,5.94,0,0,1,137.83,153.82Zm0-2.41a3,3,0,0,0,1.73-.49,3.23,3.23,0,0,0,1.11-1.31,4.34,4.34,0,0,0,0-3.55,3.17,3.17,0,0,0-1.11-1.29,3.36,3.36,0,0,0-3.46,0,3.19,3.19,0,0,0-1.12,1.29,4.23,4.23,0,0,0,0,3.55,3.25,3.25,0,0,0,1.12,1.31A3,3,0,0,0,137.83,151.41Z"/><path class="cls-2" d="M145.51,153.53V142.22h4.23a4.6,4.6,0,0,1,2.21.48,3.25,3.25,0,0,1,1.33,1.29,3.58,3.58,0,0,1,.44,1.77,3.75,3.75,0,0,1-.48,1.92,3.55,3.55,0,0,1-1.37,1.32l2.52,4.53h-2.83l-2.11-4.15H148v4.15Zm2.51-6.21h1.58a1.48,1.48,0,0,0,1.12-.42,1.45,1.45,0,0,0,.41-1.07,1.49,1.49,0,0,0-.41-1.1,1.54,1.54,0,0,0-1.12-.41H148Z"/><path class="cls-2" d="M155.67,153.53l.52-11.31h2.44l3,5.31,2.9-5.31h2.45l.53,11.31H164.9l-.32-7.39L162.22,152H160.9l-2.49-5.79-.29,7.34Z"/><path class="cls-2" d="M168.51,153.53l4.24-11.31h2.85l4.15,11.31h-2.81l-.87-2.59h-4l-.87,2.59Zm4.16-4.58h2.79l-1.38-4.27Z"/><path class="cls-2" d="M182.07,153.53v-9.06h-3.68v-2.25h9.93v2.25h-3.66v9.06Z"/><path class="cls-2" d="M189.79,153.53V142.22h2.57v11.31Z"/><path class="cls-2" d="M203.08,149.85l1.75,1.6a5.76,5.76,0,0,1-1.22,1.19,6.07,6.07,0,0,1-1.66.86,5.77,5.77,0,0,1-2,.32,6,6,0,0,1-3-.76,5.47,5.47,0,0,1-2.06-2.1,6.16,6.16,0,0,1-.74-3,6.29,6.29,0,0,1,.43-2.35,5.63,5.63,0,0,1,1.2-1.91,5.4,5.4,0,0,1,1.86-1.27,6,6,0,0,1,2.39-.46,6.36,6.36,0,0,1,2.76.57,5.31,5.31,0,0,1,2,1.67L203,145.85a4.13,4.13,0,0,0-1.21-1.15,3.07,3.07,0,0,0-1.67-.43,3.08,3.08,0,0,0-2.9,1.78,4,4,0,0,0-.4,1.8,3.91,3.91,0,0,0,.4,1.8,3.06,3.06,0,0,0,1.13,1.26,3.14,3.14,0,0,0,1.72.47,3.55,3.55,0,0,0,1.36-.22,3,3,0,0,0,.93-.57A8.5,8.5,0,0,0,203.08,149.85Z"/><path class="cls-2" d="M205.38,151.94l1.65-1.78a5.71,5.71,0,0,0,1.18.93,3.2,3.2,0,0,0,1.73.46,2.07,2.07,0,0,0,.77-.15,1.43,1.43,0,0,0,.62-.42,1,1,0,0,0,.25-.67,1.08,1.08,0,0,0-.62-1,7.37,7.37,0,0,0-1.94-.68,4.7,4.7,0,0,1-2.14-1.14,2.77,2.77,0,0,1-.86-2.1,3.3,3.3,0,0,1,1.84-3,5,5,0,0,1,2.32-.48,5.55,5.55,0,0,1,1.95.3,5.15,5.15,0,0,1,1.27.65,3.88,3.88,0,0,1,.66.58l-1.48,1.63a9.91,9.91,0,0,0-1-.66,2.77,2.77,0,0,0-1.44-.36,1.78,1.78,0,0,0-1,.31.91.91,0,0,0-.47.76,1.07,1.07,0,0,0,.62.93,6,6,0,0,0,1.68.6,6.28,6.28,0,0,1,1.61.61,3.45,3.45,0,0,1,1.27,1.13,3.33,3.33,0,0,1,.5,1.9,3.06,3.06,0,0,1-.58,1.82,3.92,3.92,0,0,1-1.57,1.25,5.14,5.14,0,0,1-2.21.46,6.77,6.77,0,0,1-2-.27,5.91,5.91,0,0,1-2.6-1.61Z"/><path class="cls-2" d="M4.32,135.19v-9.64H.41v-2.4H11v2.4H7.08v9.64Z"/><path class="cls-2" d="M12.53,135.19v-12h2.74v4.62h5.24v-4.62h2.73v12H20.51v-4.94H15.27v4.94Z"/><path class="cls-2" d="M25.6,135.19v-12h8.26v2.38H28.34v2.35h4.29v2.31H28.34v2.6h5.92v2.4Z"/><path class="cls-2" d="M38.4,134.09l1.41-1.84A4.36,4.36,0,0,0,41,133a3.21,3.21,0,0,0,1.3.26,2.12,2.12,0,0,0,1.38-.45,1.53,1.53,0,0,0,.56-1.26,1.59,1.59,0,0,0-1.78-1.61,3.24,3.24,0,0,0-.64.06,2.24,2.24,0,0,0-.47.14l-.67-1.07,2.92-3H39.3v-2.25h7.18v1.86l-2.38,2.67a3.16,3.16,0,0,1,2.06,1.13,3.48,3.48,0,0,1,.7,2.23,3.33,3.33,0,0,1-.63,2.05,4,4,0,0,1-1.64,1.28,5.46,5.46,0,0,1-2.19.44,6.47,6.47,0,0,1-2.27-.38A5.23,5.23,0,0,1,38.4,134.09Z"/><path class="cls-2" d="M56.92,124.22l-1,2c-.15-.07-.38-.17-.72-.3a3.23,3.23,0,0,0-1.11-.19,2.4,2.4,0,0,0-1.72.73,3,3,0,0,0-.87,1.93,4.43,4.43,0,0,1,.95-.46,3.4,3.4,0,0,1,1.22-.21,3.5,3.5,0,0,1,2.67,1,3.74,3.74,0,0,1,1,2.69,4.3,4.3,0,0,1-.48,2,3.87,3.87,0,0,1-1.39,1.48,4.17,4.17,0,0,1-2.21.56,4.31,4.31,0,0,1-2.23-.58,3.89,3.89,0,0,1-1.58-1.83,7.84,7.84,0,0,1-.58-3.28,8.29,8.29,0,0,1,.6-3.22,5.16,5.16,0,0,1,1.77-2.27,4.84,4.84,0,0,1,2.87-.83,4.94,4.94,0,0,1,1.68.26A10.56,10.56,0,0,1,56.92,124.22Zm-5.46,6.21a4.72,4.72,0,0,0,.28,1.7,1.67,1.67,0,0,0,.66.88,1.59,1.59,0,0,0,.86.25,1.51,1.51,0,0,0,1.19-.51,1.92,1.92,0,0,0,.46-1.33,1.54,1.54,0,0,0-.46-1.19,1.57,1.57,0,0,0-1.14-.43,3,3,0,0,0-1.1.18A3.39,3.39,0,0,0,51.46,130.43Z"/><path class="cls-2" d="M60.47,129.18v-5.62H58.19v-1.4h6.16v1.4H62.08v5.62Z"/><path class="cls-2" d="M65.26,129.18v-7h1.6v2.7h3v-2.7h1.6v7h-1.6V126.3h-3v2.88Z"/><path class="cls-2" d="M76.65,135.19v-12h2.74v12Z"/><path class="cls-2" d="M81.74,135.19v-12h2.61L89.59,131v-7.82h2.7v12H89.81l-5.37-8v8Z"/><path class="cls-2" d="M97.76,135.19v-9.64H93.85v-2.4h10.57v2.4h-3.9v9.64Z"/><path class="cls-2" d="M106,135.19v-12h8.26v2.38h-5.53v2.35H113v2.31h-4.3v2.6h5.93v2.4Z"/><path class="cls-2" d="M116.49,135.19v-12H121a4.79,4.79,0,0,1,2.36.52,3.39,3.39,0,0,1,1.41,1.37,3.78,3.78,0,0,1,.47,1.88,4,4,0,0,1-.51,2,3.81,3.81,0,0,1-1.46,1.41l2.68,4.82h-3l-2.25-4.42h-1.52v4.42Zm2.66-6.6h1.69a1.54,1.54,0,0,0,1.19-.46,1.57,1.57,0,0,0,.44-1.13,1.59,1.59,0,0,0-.44-1.18,1.64,1.64,0,0,0-1.19-.43h-1.69Z"/><path class="cls-2" d="M127.49,135.19v-12h2.61l5.24,7.82v-7.82H138v12h-2.48l-5.37-8v8Z"/><path class="cls-2" d="M139.34,135.19l4.51-12h3l4.42,12h-3l-.92-2.76h-4.26l-.92,2.76Zm4.42-4.87h3l-1.47-4.55Z"/><path class="cls-2" d="M153.77,135.19v-9.64h-3.91v-2.4h10.56v2.4h-3.9v9.64Z"/><path class="cls-2" d="M162,135.19v-12h2.74v12Z"/><path class="cls-2" d="M172.89,135.5a6.34,6.34,0,0,1-2.48-.48,6.13,6.13,0,0,1-3.34-3.37,6.86,6.86,0,0,1,0-5,6.35,6.35,0,0,1,1.33-2,5.89,5.89,0,0,1,2-1.35,6.61,6.61,0,0,1,2.49-.47,6.52,6.52,0,0,1,2.48.47,6.24,6.24,0,0,1,2,1.35,6.35,6.35,0,0,1,1.33,2,6.86,6.86,0,0,1,0,5,6.19,6.19,0,0,1-5.82,3.85Zm0-2.56a3.19,3.19,0,0,0,1.84-.53,3.4,3.4,0,0,0,1.18-1.39,4.56,4.56,0,0,0,0-3.78,3.35,3.35,0,0,0-1.18-1.37,3.52,3.52,0,0,0-3.68,0,3.44,3.44,0,0,0-1.19,1.37,4.56,4.56,0,0,0,0,3.78,3.5,3.5,0,0,0,1.19,1.39A3.19,3.19,0,0,0,172.89,132.94Z"/><path class="cls-2" d="M181.06,135.19v-12h2.62l5.23,7.82v-7.82h2.7v12h-2.48l-5.36-8v8Z"/><path class="cls-2" d="M192.92,135.19l4.51-12h3l4.42,12h-3l-.93-2.76h-4.25l-.93,2.76Zm4.42-4.87h3l-1.47-4.55Z"/><path class="cls-2" d="M206.18,135.19v-12h2.74v9.62h5.78v2.42Z"/><polygon class="cls-2" points="202.3 113.79 184.93 113.79 177.5 0 186.92 0 202.3 113.79"/><polygon class="cls-2" points="13.55 113.79 30.92 113.79 38.35 0 28.93 0 13.55 113.79"/><path class="cls-3" d="M109.89,113.79h2V101.92c-.66.06-1.33.1-2,.13Z"/><path class="cls-3" d="M100,113.79V101.41q-1-.18-2-.39v12.77Z"/><path class="cls-3" d="M117.85,113.79V101q-1,.21-2,.39v12.38Z"/><path class="cls-3" d="M104,113.79h2V102.05c-.68,0-1.35-.07-2-.13Z"/><path class="cls-3" d="M163.79,55.87a55.87,55.87,0,1,0-83.9,48.29l-27.83,1.38v8.25h42V100a46.24,46.24,0,1,1,27.73,0v13.82h42v-8.25L136,104.16A55.89,55.89,0,0,0,163.79,55.87Z"/></g></g></svg>