<svg xmlns="http://www.w3.org/2000/svg" viewBox="0 0 457.23 598.85"><defs></defs><g id="Layer_2" data-name="Layer 2"><g id="Layer_1-2" data-name="Layer 1"><rect class="cls-1" x="327.63" y="543.6" width="18.75" height="18.75" rx="9.18"/><rect class="cls-1" x="255.39" y="580.1" width="18.75" height="18.75" rx="9.18"/><rect class="cls-1" x="327.7" y="310.96" width="18.75" height="33.78" rx="9.18"/><rect class="cls-1" x="219.24" y="580.1" width="18.75" height="18.75" rx="9.18"/><rect class="cls-1" x="327.63" y="471.29" width="18.75" height="18.75" rx="9.18"/><rect class="cls-1" x="327.63" y="435.14" width="18.75" height="18.75" rx="9.18"/><rect class="cls-1" x="219.24" y="362.49" width="18.75" height="18.75" rx="9.18"/><rect class="cls-1" x="255.39" y="362.49" width="18.75" height="18.75" rx="9.18"/><rect class="cls-1" x="219.24" y="236.64" width="18.75" height="108.1" rx="9.18"/><rect class="cls-1" x="183.09" y="281.47" width="18.75" height="63.27" rx="9.18"/><rect class="cls-1" x="183.09" y="362.49" width="18.75" height="18.75" rx="9.18"/><rect class="cls-1" x="183.09" y="580.1" width="18.75" height="18.75" rx="9.18"/><rect class="cls-1" x="418.08" width="18.75" height="49.84" rx="9.18"/><rect class="cls-1" x="255.39" y="281.47" width="18.75" height="63.27" rx="9.18"/><rect class="cls-1" x="400" y="123.19" width="18.75" height="70.39" rx="9.18"/><rect class="cls-1" x="327.63" y="398.99" width="18.75" height="18.75" rx="9.18"/><rect class="cls-1" x="436.16" y="61.95" width="18.75" height="131.63" rx="9.18"/><path class="cls-1" d="M457.23,236a29.78,29.78,0,1,0-29.78,29.77A29.81,29.81,0,0,0,457.23,236Z"/><rect class="cls-1" x="400" y="278.39" width="18.75" height="197.17" rx="9.18"/><rect class="cls-1" x="400" y="61.95" width="18.75" height="44.38" rx="9.18"/><rect class="cls-1" x="363.85" y="304.43" width="18.75" height="76.81" rx="9.18"/><rect class="cls-1" x="363.85" y="398.99" width="18.75" height="199.86" rx="9.18"/><rect class="cls-1" x="327.76" y="507.45" width="18.75" height="18.75" rx="9.18"/><rect class="cls-1" x="436.16" y="398.99" width="18.75" height="199.86" rx="9.18"/><rect class="cls-1" x="436.16" y="278.39" width="18.75" height="102.85" rx="9.18"/><rect class="cls-1" x="400" y="490.12" width="18.75" height="108.73" rx="9.18"/><rect class="cls-1" x="110.72" y="471.29" width="18.75" height="18.75" rx="9.18"/><rect class="cls-1" x="2.33" y="61.95" width="18.75" height="131.63" rx="9.18"/><circle class="cls-1" cx="29.78" cy="235.99" r="29.78"/><rect class="cls-1" x="38.48" y="61.95" width="18.75" height="78.7" rx="9.18"/><rect class="cls-1" x="38.48" y="157.99" width="18.75" height="35.59" rx="9.18"/><rect class="cls-1" x="74.63" y="490.12" width="18.75" height="108.73" rx="9.18"/><rect class="cls-1" x="74.63" y="304.43" width="18.75" height="171.13" rx="9.18"/><rect class="cls-1" x="291.55" y="580.1" width="18.75" height="18.75" rx="9.18"/><rect class="cls-1" x="110.72" y="543.6" width="18.75" height="18.75" rx="9.18"/><rect class="cls-1" x="38.48" y="278.39" width="18.75" height="102.85" rx="9.18"/><rect class="cls-1" x="20.4" width="18.75" height="49.84" rx="9.18"/><rect class="cls-1" x="2.33" y="490.12" width="18.75" height="108.73" rx="9.18"/><rect class="cls-1" x="2.33" y="278.39" width="18.75" height="197.17" rx="9.18"/><rect class="cls-1" x="38.48" y="396.45" width="18.75" height="202.39" rx="9.18"/><circle class="cls-1" cx="228.62" cy="480.67" r="35.5"/><rect class="cls-1" x="146.94" y="305.22" width="18.75" height="39.53" rx="9.18"/><path class="cls-1" d="M162,399a15.09,15.09,0,0,0-15.08,15.08v133.2A15.09,15.09,0,0,0,162,562.35h133.2a15.1,15.1,0,0,0,15.08-15.08V414.07A15.1,15.1,0,0,0,295.22,399Zm66.6,144.61a62.93,62.93,0,1,1,62.93-62.93A63,63,0,0,1,228.62,543.6Z"/><rect class="cls-1" x="146.94" y="580.1" width="18.75" height="18.75" rx="9.18"/><rect class="cls-1" x="110.78" y="310.96" width="18.75" height="33.78" rx="9.18"/><rect class="cls-1" x="146.94" y="362.49" width="18.75" height="18.75" rx="9.18"/><rect class="cls-1" x="110.72" y="398.99" width="18.75" height="18.75" rx="9.18"/><rect class="cls-1" x="110.72" y="435.14" width="18.75" height="18.75" rx="9.18"/><rect class="cls-1" x="291.55" y="305.22" width="18.75" height="39.53" rx="9.18"/><rect class="cls-1" x="110.85" y="507.45" width="18.75" height="18.75" rx="9.18"/><rect class="cls-1" x="291.55" y="362.49" width="18.75" height="18.75" rx="9.18"/></g></g>
<style>
    .cls-1 {
      fill: black;
    }
    @media (prefers-color-scheme: dark) {
      .cls-1 {
        fill: white;
      }
    }
  </style>

</svg>